<svg width="32" height="32" viewBox="0 0 32 32" fill="none" xmlns="http://www.w3.org/2000/svg">
  <defs>
    <linearGradient id="grad1" x1="0%" y1="0%" x2="100%" y2="100%">
      <stop offset="0%" style="stop-color:#667eea;stop-opacity:1" />
      <stop offset="100%" style="stop-color:#764ba2;stop-opacity:1" />
    </linearGradient>
    <linearGradient id="grad2" x1="0%" y1="0%" x2="100%" y2="100%">
      <stop offset="0%" style="stop-color:#f093fb;stop-opacity:1" />
      <stop offset="100%" style="stop-color:#f5576c;stop-opacity:1" />
    </linearGradient>
  </defs>
  
  <!-- Background Circle -->
  <circle cx="16" cy="16" r="16" fill="url(#grad1)"/>
  
  <!-- Chat Bubble -->
  <path d="M8 12C8 9.79086 9.79086 8 12 8H20C22.2091 8 24 9.79086 24 12V18C24 20.2091 22.2091 22 20 22H16L12 26V22H12C9.79086 22 8 20.2091 8 18V12Z" fill="white" opacity="0.9"/>
  
  <!-- Message Lines -->
  <rect x="10" y="11" width="8" height="1.5" rx="0.75" fill="url(#grad2)" opacity="0.8"/>
  <rect x="10" y="14" width="6" height="1.5" rx="0.75" fill="url(#grad2)" opacity="0.6"/>
  <rect x="10" y="17" width="4" height="1.5" rx="0.75" fill="url(#grad2)" opacity="0.4"/>
  
  <!-- Decorative Elements -->
  <circle cx="14" cy="14" r="1" fill="url(#grad2)" opacity="0.3"/>
  <circle cx="18" cy="14" r="1" fill="url(#grad2)" opacity="0.3"/>
</svg> 